<?xml version="1.0" encoding="utf-8"?>
<!-- Generator: Adobe Illustrator 16.0.0, SVG Export Plug-In . SVG Version: 6.00 Build 0)  -->
<!DOCTYPE svg PUBLIC "-//W3C//DTD SVG 1.1//EN" "http://www.w3.org/Graphics/SVG/1.1/DTD/svg11.dtd">
<svg version="1.1" id="Layer_1" xmlns="http://www.w3.org/2000/svg" xmlns:xlink="http://www.w3.org/1999/xlink" x="0px" y="0px"
	 width="229px" height="42px" viewBox="0 0 229 42" enable-background="new 0 0 229 42" xml:space="preserve">
<g>
	<g>
		<path fill="#FFFFFF" d="M76.667,10.193c1.716,1.381,2.574,3.307,2.574,5.778c0,2.112-0.498,3.954-1.494,5.526
			s-2.411,2.777-4.248,3.617c-1.836,0.841-4.002,1.26-6.497,1.26h-5.616l-1.368,6.949h-5.868l5.04-25.201h10.188
			C72.521,8.123,74.951,8.814,76.667,10.193z M71.754,20.291c1.056-0.887,1.584-2.159,1.584-3.815c0-1.2-0.402-2.1-1.206-2.7
			c-0.805-0.6-1.962-0.9-3.475-0.9h-4.571l-1.765,8.748h4.933C69.197,21.623,70.697,21.18,71.754,20.291z"/>
		<path fill="#FFFFFF" d="M84.731,32.531c-1.476-0.72-2.616-1.732-3.42-3.041c-0.805-1.309-1.206-2.826-1.206-4.555
			c0-2.136,0.504-4.056,1.512-5.76c1.009-1.704,2.4-3.048,4.177-4.032c1.775-0.983,3.779-1.476,6.012-1.476
			c1.968,0,3.684,0.359,5.147,1.08c1.464,0.72,2.598,1.734,3.402,3.041c0.804,1.309,1.206,2.826,1.206,4.555
			c0,2.137-0.498,4.057-1.494,5.76c-0.996,1.705-2.389,3.049-4.176,4.032c-1.788,0.984-3.798,1.476-6.03,1.476
			C87.918,33.611,86.208,33.252,84.731,32.531z M93.138,28.158c0.864-0.541,1.535-1.291,2.016-2.25c0.48-0.96,0.72-2.064,0.72-3.313
			c0-1.32-0.384-2.363-1.151-3.132c-0.769-0.769-1.849-1.152-3.24-1.152c-1.104,0-2.088,0.271-2.952,0.81
			c-0.864,0.541-1.536,1.291-2.016,2.25c-0.48,0.961-0.72,2.064-0.72,3.313c0,1.32,0.39,2.364,1.17,3.133
			c0.779,0.768,1.865,1.151,3.258,1.151C91.302,28.968,92.273,28.697,93.138,28.158z"/>
		<path fill="#FFFFFF" d="M125.825,13.955l-12.023,19.369h-5.796l-4.284-19.369h5.544l2.808,13.213l8.136-13.213H125.825z"/>
		<path fill="#FFFFFF" d="M144.437,25.152h-14.832c0.191,2.64,1.859,3.959,5.004,3.959c0.984,0,1.926-0.155,2.826-0.468
			c0.9-0.312,1.686-0.756,2.357-1.332l2.34,3.708c-1.08,0.864-2.316,1.512-3.707,1.944c-1.393,0.432-2.857,0.647-4.393,0.647
			c-1.992,0-3.738-0.354-5.238-1.062c-1.5-0.708-2.652-1.722-3.456-3.042c-0.805-1.32-1.206-2.844-1.206-4.572
			c0-2.136,0.486-4.062,1.458-5.777c0.972-1.717,2.322-3.061,4.049-4.033c1.729-0.971,3.695-1.457,5.904-1.457
			c1.873,0,3.498,0.348,4.879,1.044c1.379,0.696,2.447,1.692,3.203,2.987c0.756,1.297,1.135,2.797,1.135,4.5
			C144.761,23.088,144.652,24.072,144.437,25.152z M131.945,18.941c-0.912,0.709-1.561,1.687-1.943,2.934h9.611
			c0-1.247-0.391-2.225-1.17-2.934c-0.781-0.707-1.83-1.062-3.15-1.062S132.857,18.234,131.945,18.941z"/>
		<path fill="#FFFFFF" d="M164.957,17.34l-11.951,11.664h9.936l-0.863,4.32h-17.279l0.684-3.385l11.951-11.664h-9.324l0.865-4.32
			h16.631L164.957,17.34z M165.822,6.287l-5.436,5.185h-4.969l-4.031-5.185h3.996l2.771,2.701l3.492-2.701H165.822z"/>
		<path fill="#FFFFFF" d="M169.566,13.955h5.58l-3.854,19.369h-5.58L169.566,13.955z M170.951,10.41
			c-0.611-0.564-0.918-1.254-0.918-2.07c0-0.96,0.342-1.758,1.027-2.394c0.684-0.636,1.576-0.954,2.682-0.954
			c0.984,0,1.781,0.27,2.395,0.81c0.611,0.54,0.918,1.206,0.918,1.998c0,1.032-0.35,1.866-1.045,2.502
			c-0.697,0.636-1.596,0.954-2.699,0.954C172.349,11.256,171.564,10.975,170.951,10.41z"/>
		<path fill="#FFFFFF" d="M176.693,32.693c-0.625-0.611-0.936-1.386-0.936-2.322c0-1.104,0.359-2.003,1.08-2.699
			c0.719-0.695,1.607-1.044,2.664-1.044c0.959,0,1.746,0.3,2.357,0.899c0.611,0.601,0.918,1.381,0.918,2.34
			c0,1.08-0.365,1.975-1.098,2.683s-1.602,1.062-2.609,1.062C178.109,33.611,177.318,33.306,176.693,32.693z"/>
		<path fill="#FFFFFF" d="M188.23,33.054c-1.5-0.372-2.67-0.858-3.51-1.458l2.16-4.068c0.84,0.553,1.865,0.996,3.078,1.332
			c1.211,0.337,2.43,0.504,3.654,0.504c1.271,0,2.219-0.162,2.844-0.485c0.623-0.324,0.936-0.786,0.936-1.386
			c0-0.48-0.275-0.828-0.828-1.045c-0.551-0.215-1.439-0.443-2.664-0.684c-1.391-0.264-2.537-0.552-3.438-0.863
			c-0.9-0.313-1.68-0.822-2.34-1.531c-0.66-0.707-0.99-1.674-0.99-2.897c0-2.136,0.895-3.804,2.682-5.004
			c1.789-1.2,4.135-1.8,7.039-1.8c1.344,0,2.65,0.144,3.924,0.432c1.271,0.288,2.352,0.684,3.24,1.188l-2.016,4.104
			c-1.584-0.983-3.492-1.476-5.725-1.476c-1.225,0-2.154,0.18-2.791,0.539c-0.635,0.361-0.953,0.816-0.953,1.369
			c0,0.504,0.275,0.869,0.828,1.098c0.551,0.229,1.477,0.475,2.771,0.738c1.369,0.264,2.49,0.546,3.367,0.846
			c0.875,0.301,1.637,0.798,2.285,1.494s0.973,1.645,0.973,2.844c0,2.16-0.906,3.828-2.719,5.004s-4.158,1.764-7.037,1.764
			C191.32,33.611,189.73,33.426,188.23,33.054z"/>
		<path fill="#FFFFFF" d="M225.759,25.152h-14.832c0.193,2.64,1.861,3.959,5.004,3.959c0.984,0,1.928-0.155,2.826-0.468
			c0.9-0.312,1.686-0.756,2.359-1.332l2.34,3.708c-1.08,0.864-2.316,1.512-3.709,1.944c-1.393,0.432-2.855,0.647-4.391,0.647
			c-1.994,0-3.74-0.354-5.238-1.062c-1.5-0.708-2.652-1.722-3.457-3.042s-1.205-2.844-1.205-4.572c0-2.136,0.486-4.062,1.457-5.777
			c0.973-1.717,2.322-3.061,4.051-4.033c1.729-0.971,3.695-1.457,5.904-1.457c1.871,0,3.496,0.348,4.877,1.044
			s2.449,1.692,3.205,2.987c0.756,1.297,1.133,2.797,1.133,4.5C226.083,23.088,225.976,24.072,225.759,25.152z M213.267,18.941
			c-0.912,0.709-1.559,1.687-1.943,2.934h9.611c0-1.247-0.389-2.225-1.17-2.934c-0.779-0.707-1.83-1.062-3.148-1.062
			C215.296,17.88,214.179,18.234,213.267,18.941z"/>
	</g>
	<g>
		<path fill="#FFFFFF" d="M38.706,3.101c-2.127-2.126-5.474-2.021-7.702,0c-1.202,1.089-1.62,4.888-1.651,5.102
			c-0.063,0.437-0.132,0.911-0.217,1.399c-0.073,0.5-0.187,0.992-0.333,1.47c-0.288,0.963-0.808,1.779-1.509,2.412
			c-0.347,0.32-0.742,0.593-1.176,0.816c-0.436,0.221-0.921,0.382-1.418,0.511c-0.5,0.125-3.441,0.531-6.881-0.043
			c-0.493-0.082-0.979-0.185-1.452-0.33c-0.951-0.285-1.757-0.797-2.381-1.49c-0.316-0.343-0.585-0.732-0.806-1.161
			c-0.218-0.431-0.377-0.909-0.505-1.4c-0.123-0.493-0.202-1.013-0.271-1.51c-0.068-0.497-0.132-0.969-0.192-1.403
			c-0.071-0.424-0.135-0.813-0.192-1.156c-0.061-0.294-0.114-0.549-0.17-0.761c-0.041-0.216-0.218-0.797-0.218-0.797
			c-0.259-0.736-0.676-1.43-1.265-2.018c-2.1-2.1-5.505-2.1-7.605,0c-2.1,2.101-2.1,5.505,0,7.605
			c0.589,0.589,1.282,1.007,2.018,1.265c0,0,0.582,0.178,0.798,0.217c0.212,0.057,0.466,0.11,0.761,0.172
			c0.344,0.057,0.733,0.121,1.157,0.191c0.434,0.06,0.905,0.124,1.403,0.193c0.498,0.068,1.016,0.146,1.51,0.271
			c0.491,0.128,0.97,0.286,1.4,0.505c0.429,0.22,0.818,0.488,1.161,0.807c0.693,0.624,1.206,1.43,1.49,2.381
			c0.146,0.471,0.226,0.963,0.33,1.451c0.586,2.757-0.245,6.677-0.371,7.178c-0.129,0.496-0.29,0.981-0.511,1.418
			c-0.223,0.434-0.496,0.828-0.816,1.176c-0.632,0.701-1.449,1.221-2.412,1.509c-0.479,0.147-0.97,0.261-1.47,0.333
			c-0.489,0.086-0.962,0.154-1.399,0.218c-0.214,0.03-2.205,0.084-2.97,0.337c-0.048-0.027-1.359,0.422-2.132,1.313
			c-1.974,2.271-2.127,5.576,0,7.703c2.126,2.127,5.366,1.895,7.702,0c1.557-1.264,1.619-4.889,1.65-5.102
			c0.063-0.438,0.132-0.91,0.217-1.399c0.073-0.501,0.187-0.992,0.334-1.47c0.288-0.964,0.808-1.779,1.509-2.412
			c0.347-0.32,0.741-0.594,1.175-0.816c0.437-0.221,0.921-0.383,1.418-0.512c0.5-0.125,1.026-0.204,1.53-0.273
			s0.981-0.135,1.42-0.195c0.43-0.071,0.823-0.137,1.172-0.195c0.298-0.061,0.556-0.115,0.771-0.172
			c0.219-0.041,0.808-0.221,0.808-0.221c0.063-0.021,0.125-0.053,0.187-0.076c0.75-0.262,1.456-0.686,2.056-1.285
			c0.596-0.597,1.019-1.299,1.281-2.045c0,0,0.179-0.588,0.221-0.807c0.056-0.215,0.11-0.473,0.172-0.771
			c0.058-0.348,0.123-0.742,0.194-1.171c0.061-0.44,0.126-0.917,0.195-1.421c0.07-0.504,0.149-1.029,0.274-1.53
			c0.129-0.497,0.29-0.981,0.511-1.418c0.223-0.435,0.496-0.829,0.816-1.176c0.633-0.702,1.449-1.221,2.412-1.509
			c0.479-0.147,0.97-0.262,1.47-0.334c0.489-0.085,0.962-0.154,1.399-0.217c0.214-0.031,2.206-0.084,2.97-0.338
			c0.048,0.027,1.359-0.422,2.132-1.313C40.68,8.533,40.833,5.228,38.706,3.101z"/>
		<circle fill="#FFFFFF" cx="34.701" cy="35.143" r="5.447"/>
	</g>
</g>
</svg>
